<svg width="217" height="57" viewBox="0 0 217 57" fill="none" xmlns="http://www.w3.org/2000/svg">
<path d="M28.5 52.481C34.5361 52.3529 39.2163 47.7484 43.3206 43.3206C47.2238 39.1098 50.1441 34.2117 50.7291 28.5C51.3873 22.0735 51.5554 14.5616 46.7028 10.2972C41.952 6.12228 34.8241 8.89252 28.5 8.96527C22.3066 9.03652 15.4507 6.72363 10.7113 10.7112C5.77972 14.8605 4.83266 22.0708 5.28225 28.5C5.70041 34.4798 8.86698 39.6567 13.0366 43.9634C17.2918 48.3586 22.3838 52.6109 28.5 52.481Z" fill="#38BDF8"/>
<path d="M16.9362 21.8863L19.6867 21.7737C20.7004 22.9036 22.0681 23.6048 23.5442 23.7482C23.6946 23.7628 24.4045 23.7702 24.5501 23.7592C26.0061 23.6497 27.3701 22.9982 28.4008 21.9187L29.6629 21.9049C29.6639 21.9049 29.6648 21.9051 29.6657 21.9051C29.6667 21.9051 29.6678 21.9049 29.6689 21.9049L31.329 21.887C31.5803 21.8843 31.8178 21.7723 31.9798 21.5803C32.1418 21.3882 32.2121 21.1352 32.1725 20.8871L31.2789 15.2946C30.8119 12.3719 27.6688 9.99347 24.2725 9.99347C24.218 9.99347 24.0021 9.99347 23.9479 9.99347C20.5517 9.99347 17.4088 12.3719 16.9418 15.2946L16.048 20.8868C16.0071 21.1426 16.0832 21.4033 16.2553 21.597C16.4274 21.7906 16.6757 21.8978 16.9362 21.8863ZM24.0313 22.0476C23.0222 22.0283 22.0638 21.6375 21.3069 20.956C22.5016 19.9737 23.2798 18.4994 23.4409 16.8566C24.0092 16.6897 24.5659 16.4354 25.0854 16.0881C25.5433 17.8381 26.3511 19.3383 27.414 20.4375C27.4103 20.441 27.4069 20.4447 27.4033 20.4484C27.3924 20.4592 27.3822 20.4709 27.3718 20.4824C27.3649 20.4901 27.3575 20.4971 27.3508 20.5051C26.5107 21.5097 25.2985 22.0723 24.0313 22.0476ZM29.5731 15.5679L30.3087 20.1706L29.8705 20.1754C28.2041 19.2721 26.9815 17.2539 26.5522 14.6993C26.9668 14.1497 27.3156 13.4982 27.5741 12.7404C28.632 13.4496 29.3967 14.4633 29.5731 15.5679ZM18.6474 15.5672C18.9806 13.4826 21.4079 11.7208 23.948 11.7208C23.9949 11.7208 24.2252 11.7208 24.2726 11.7208C24.8637 11.7208 25.4482 11.8179 26.0021 11.9904C25.1973 14.6129 23.0729 15.5752 21.2275 15.3445C20.7542 15.2853 20.3225 15.6214 20.2634 16.0948C20.2044 16.5681 20.5402 16.9998 21.0135 17.0588C21.226 17.0853 21.4425 17.0995 21.6614 17.1023C21.4183 18.3898 20.6526 19.4814 19.5617 20.0501L17.9203 20.117L18.6474 15.5672ZM41.7452 31.4987H31.1444C30.6675 31.4987 30.2378 31.8589 30.2378 32.3358V33.7128C30.2378 34.1898 30.6245 34.5765 31.1015 34.5765C31.5784 34.5765 31.9651 34.1898 31.9651 33.7128V33.226H40.8608V39.9738L39.7123 39.0258C39.5573 38.8974 39.3727 38.8398 39.1714 38.8398H36.8881V36.6806C36.8881 36.2037 36.5285 35.817 36.0515 35.817H25.4507C24.9737 35.817 24.624 36.2037 24.624 36.6806V46.1565C24.624 46.4912 24.7989 46.7958 25.1019 46.9382C25.3797 47.095 25.8485 46.9519 26.0065 46.8209L28.3359 44.8854H36.0515C36.5284 44.8854 36.888 44.4997 36.888 44.0228V40.5671H38.8599L41.194 42.4892C41.3519 42.6203 41.5477 42.6816 41.7453 42.6816C41.8699 42.6816 41.985 42.6515 42.1021 42.5965C42.4051 42.4541 42.5881 42.1463 42.5881 41.8116V32.3358C42.5882 31.8589 42.2222 31.4987 41.7452 31.4987ZM35.1607 43.1581H28.0245C27.8232 43.1581 27.6467 43.2289 27.4918 43.3574L26.3513 44.3187V37.5443H35.1607V43.1581ZM22.0644 27.5633C19.934 28.149 18.5112 29.5704 18.1607 31.4631L16.3141 41.4308H21.1204C21.5973 41.4308 21.984 41.8174 21.984 42.2944C21.984 42.7714 21.5974 43.1581 21.1204 43.1581H15.2758C15.0192 43.1581 14.7759 43.044 14.6118 42.8468C14.4477 42.6495 14.3798 42.3895 14.4266 42.1373L16.4622 31.1486C16.9379 28.5796 18.8129 26.6657 21.6065 25.8978C23.1048 25.4858 24.7686 25.4567 26.2916 25.8156C27.9315 26.202 29.3181 26.9992 30.3014 28.1212C30.6157 28.4799 30.5798 29.0257 30.221 29.3399C29.8625 29.6544 29.3168 29.6185 29.0023 29.2596C27.5038 27.5498 24.6509 26.8524 22.0644 27.5633Z" fill="white" stroke="white" stroke-width="0.00101949"/>
<path d="M70.8398 36.293C70.0508 36.293 69.4102 36.125 68.918 35.7891C68.4258 35.4531 68.0273 34.9609 67.7227 34.3125C67.4258 33.6562 67.1758 32.8594 66.9727 31.9219C66.8477 31.3359 66.6914 30.8398 66.5039 30.4336C66.3164 30.0195 66.1211 29.6719 65.918 29.3906C65.6992 29.2422 65.4375 29.1445 65.1328 29.0977C64.8359 29.043 64.4766 29.0156 64.0547 29.0156H62.8477V33.457C62.8477 33.8008 62.9336 34.0156 63.1055 34.1016C63.2773 34.1797 63.6133 34.2188 64.1133 34.2188H64.6641V36C64.1172 36 63.5742 36 63.0352 36C62.5039 35.9922 61.875 35.9844 61.1484 35.9766C60.4141 35.9766 59.793 35.9805 59.2852 35.9883C58.7773 35.9961 58.2578 36 57.7266 36V34.2188H58.1719C58.6484 34.2188 58.9844 34.1797 59.1797 34.1016C59.375 34.0234 59.4883 33.9062 59.5195 33.75C59.5586 33.5938 59.5781 33.4023 59.5781 33.1758V23.5781C59.5781 23.3125 59.5547 23.1055 59.5078 22.957C59.4609 22.8008 59.3359 22.6914 59.1328 22.6289C58.9375 22.5586 58.6055 22.5234 58.1367 22.5234C58.0898 22.5234 58.0234 22.5234 57.9375 22.5234C57.8594 22.5234 57.7891 22.5234 57.7266 22.5234V20.7422H64.875C65.7266 20.7422 66.543 20.7969 67.3242 20.9062C68.1133 21.0078 68.8164 21.2031 69.4336 21.4922C70.0508 21.7734 70.5391 22.1875 70.8984 22.7344C71.2578 23.2734 71.4375 23.9805 71.4375 24.8555C71.4375 25.7305 71.1562 26.4844 70.5938 27.1172C70.0312 27.7422 69.25 28.168 68.25 28.3945C68.7109 28.6602 69.1289 29.0352 69.5039 29.5195C69.8789 29.9961 70.1523 30.7578 70.3242 31.8047C70.4961 32.6719 70.6641 33.3086 70.8281 33.7148C71 34.1133 71.2852 34.3125 71.6836 34.3125C71.9492 34.3125 72.1641 34.2383 72.3281 34.0898C72.4922 33.9336 72.5742 33.6523 72.5742 33.2461L73.875 33.1055C73.875 34.1133 73.6055 34.8984 73.0664 35.4609C72.5273 36.0156 71.7852 36.293 70.8398 36.293ZM62.8477 27.5039H64.9102C66.0273 27.5039 66.8438 27.3242 67.3594 26.9648C67.875 26.6055 68.1328 25.9688 68.1328 25.0547C68.1328 24.3906 67.9922 23.8828 67.7109 23.5312C67.4297 23.1719 67.0117 22.9258 66.457 22.793C65.9102 22.6602 65.2344 22.5938 64.4297 22.5938H62.8477V27.5039ZM79.2773 36.2461C78.3633 36.2461 77.6484 36.0508 77.1328 35.6602C76.6172 35.2695 76.2578 34.6875 76.0547 33.9141C75.8516 33.1328 75.75 32.1602 75.75 30.9961V27.8555C75.75 27.5664 75.7109 27.3672 75.6328 27.2578C75.5547 27.1406 75.4023 27.0742 75.1758 27.0586C74.957 27.0352 74.6328 27.0234 74.2031 27.0234V25.4297C74.3984 25.4297 74.625 25.4297 74.8828 25.4297C75.1484 25.4297 75.4023 25.4297 75.6445 25.4297C75.8867 25.4297 76.0625 25.4297 76.1719 25.4297C76.6094 25.4219 77.0391 25.4141 77.4609 25.4062C77.8906 25.3984 78.3359 25.3867 78.7969 25.3711V31.4414C78.7969 32.043 78.8438 32.5586 78.9375 32.9883C79.0391 33.418 79.2266 33.75 79.5 33.9844C79.7734 34.2109 80.168 34.3242 80.6836 34.3242C81.4102 34.3242 82.0078 34.1992 82.4766 33.9492C82.9531 33.6992 83.3086 33.3789 83.543 32.9883C83.6055 32.7305 83.6406 32.4648 83.6484 32.1914C83.6562 31.9102 83.6602 31.6172 83.6602 31.3125V28.0195C83.6602 27.6836 83.6172 27.4492 83.5312 27.3164C83.4531 27.1758 83.2969 27.0938 83.0625 27.0703C82.8281 27.0391 82.4766 27.0234 82.0078 27.0234V25.4297C82.3594 25.4297 82.707 25.4297 83.0508 25.4297C83.4023 25.4297 83.7852 25.4297 84.1992 25.4297C84.6289 25.4219 85.0469 25.4141 85.4531 25.4062C85.8672 25.3984 86.2812 25.3867 86.6953 25.3711V33.7148C86.6953 34.0195 86.793 34.2109 86.9883 34.2891C87.1914 34.3672 87.6016 34.4062 88.2188 34.4062V36C87.9062 35.9922 87.6172 35.9883 87.3516 35.9883C87.0859 35.9883 86.8203 35.9922 86.5547 36C86.0781 36 85.6055 36.0039 85.1367 36.0117C84.668 36.0195 84.207 36.0273 83.7539 36.0352C83.7539 35.8555 83.7539 35.6562 83.7539 35.4375C83.7539 35.2188 83.7539 35.0156 83.7539 34.8281C83.7539 34.6406 83.7539 34.5039 83.7539 34.418C83.2227 35.0352 82.5703 35.4961 81.7969 35.8008C81.0312 36.0977 80.1914 36.2461 79.2773 36.2461ZM93.5273 36.2578C92.2617 36.2578 91.2852 35.9414 90.5977 35.3086C89.918 34.6758 89.5781 33.9023 89.5781 32.9883C89.5781 31.957 90.0078 31.1367 90.8672 30.5273C91.7344 29.918 92.9258 29.6133 94.4414 29.6133C94.9414 29.6133 95.4414 29.6445 95.9414 29.707C96.4492 29.7695 96.9414 29.8633 97.418 29.9883V28.5117C97.418 27.8789 97.2031 27.3828 96.7734 27.0234C96.3438 26.6641 95.6797 26.4844 94.7812 26.4844C93.2969 26.4844 92.4141 27.0781 92.1328 28.2656L90.4805 28.1016L90.5742 25.8516C90.8945 25.7031 91.4414 25.5391 92.2148 25.3594C92.9961 25.1797 93.9531 25.0898 95.0859 25.0898C96.9922 25.0898 98.3633 25.3906 99.1992 25.9922C100.043 26.5859 100.465 27.5703 100.465 28.9453V33C100.465 33.4688 100.488 33.8008 100.535 33.9961C100.582 34.1914 100.672 34.3086 100.805 34.3477C100.945 34.3867 101.156 34.4062 101.438 34.4062H101.988V36C101.895 36 101.719 36 101.461 36C101.203 35.9922 100.938 35.9883 100.664 35.9883C100.398 35.9883 100.203 35.9883 100.078 35.9883C99.6484 35.9961 99.2617 36.0039 98.918 36.0117C98.5742 36.0195 98.1953 36.0273 97.7812 36.0352L97.5469 34.4883C97.1719 35.0508 96.6641 35.4883 96.0234 35.8008C95.3906 36.1055 94.5586 36.2578 93.5273 36.2578ZM94.6406 34.7461C95.1484 34.7461 95.6133 34.6523 96.0352 34.4648C96.457 34.2695 96.793 33.9883 97.043 33.6211C97.293 33.2461 97.418 32.7891 97.418 32.25V31.0547C97.043 30.9531 96.6758 30.8789 96.3164 30.832C95.9648 30.7773 95.6133 30.75 95.2617 30.75C94.4102 30.75 93.7422 30.9297 93.2578 31.2891C92.7734 31.6484 92.5312 32.1484 92.5312 32.7891C92.5312 33.3906 92.7305 33.8672 93.1289 34.2188C93.5273 34.5703 94.0312 34.7461 94.6406 34.7461ZM103.066 36C103.066 35.9609 103.066 35.8633 103.066 35.707C103.066 35.5508 103.066 35.3789 103.066 35.1914C103.066 34.9961 103.066 34.8242 103.066 34.6758C103.066 34.5195 103.066 34.4219 103.066 34.3828C103.559 34.375 103.922 34.3555 104.156 34.3242C104.398 34.293 104.555 34.2188 104.625 34.1016C104.703 33.9844 104.742 33.7969 104.742 33.5391V27.5391C104.742 27.2734 104.617 27.1211 104.367 27.082C104.125 27.0352 103.715 27.0117 103.137 27.0117C103.137 26.957 103.137 26.8086 103.137 26.5664C103.137 26.3242 103.133 26.0859 103.125 25.8516C103.125 25.6094 103.125 25.4609 103.125 25.4062C103.438 25.4062 103.734 25.4102 104.016 25.418C104.305 25.418 104.582 25.418 104.848 25.418C105.332 25.418 105.805 25.4141 106.266 25.4062C106.727 25.3906 107.199 25.375 107.684 25.3594V27.082C108.152 26.543 108.742 26.0977 109.453 25.7461C110.164 25.3867 110.957 25.1992 111.832 25.1836C113.098 25.1836 114.059 25.5117 114.715 26.168C115.379 26.8242 115.711 27.8867 115.711 29.3555V33.75C115.711 34.0859 115.832 34.2734 116.074 34.3125C116.316 34.3438 116.695 34.3672 117.211 34.3828V36C116.766 36 116.328 36 115.898 36C115.469 35.9922 114.945 35.9844 114.328 35.9766C113.727 35.9766 113.168 35.9805 112.652 35.9883C112.137 35.9961 111.629 36 111.129 36V34.3828C111.637 34.3828 111.996 34.3633 112.207 34.3242C112.418 34.2852 112.543 34.2109 112.582 34.1016C112.629 33.9922 112.652 33.8281 112.652 33.6094V29.918C112.652 28.9961 112.516 28.3008 112.242 27.832C111.969 27.3633 111.438 27.1289 110.648 27.1289C109.953 27.1289 109.383 27.2734 108.938 27.5625C108.492 27.8516 108.152 28.1562 107.918 28.4766C107.863 28.7344 107.824 29.0156 107.801 29.3203C107.785 29.6172 107.777 29.9336 107.777 30.2695V33.5977C107.777 33.9883 107.91 34.2148 108.176 34.2773C108.441 34.3398 108.875 34.375 109.477 34.3828V36C108.961 36 108.457 36 107.965 36C107.48 35.9922 106.891 35.9844 106.195 35.9766C105.562 35.9766 105.004 35.9805 104.52 35.9883C104.035 35.9961 103.551 36 103.066 36ZM124.5 41.0156C123.617 41.0156 122.758 40.9219 121.922 40.7344C121.094 40.5469 120.324 40.2891 119.613 39.9609L119.953 37.125C120.055 37.1484 120.25 37.168 120.539 37.1836C120.836 37.207 121.109 37.2188 121.359 37.2188C121.617 37.2266 121.746 37.2305 121.746 37.2305C121.855 38.0195 122.148 38.5742 122.625 38.8945C123.102 39.2227 123.754 39.3867 124.582 39.3867C125.512 39.3867 126.27 39.1172 126.855 38.5781C127.449 38.0469 127.754 37.1406 127.77 35.8594C127.77 35.8516 127.77 35.7734 127.77 35.625C127.77 35.4688 127.77 35.293 127.77 35.0977C127.77 34.9023 127.77 34.7266 127.77 34.5703C127.77 34.4141 127.77 34.332 127.77 34.3242C127.309 34.8555 126.746 35.2539 126.082 35.5195C125.418 35.7773 124.691 35.9062 123.902 35.9062C122.832 35.9062 121.898 35.6953 121.102 35.2734C120.305 34.8438 119.688 34.2344 119.25 33.4453C118.812 32.6562 118.594 31.7266 118.594 30.6562C118.594 29.5469 118.816 28.582 119.262 27.7617C119.715 26.9336 120.344 26.293 121.148 25.8398C121.961 25.3867 122.895 25.1602 123.949 25.1602C124.848 25.1602 125.629 25.3359 126.293 25.6875C126.965 26.0391 127.52 26.5078 127.957 27.0938V25.3711C128.395 25.3867 128.828 25.4023 129.258 25.418C129.695 25.4258 130.137 25.4297 130.582 25.4297C130.957 25.4297 131.281 25.4297 131.555 25.4297C131.836 25.4219 132.117 25.4141 132.398 25.4062V27.0234C132.273 27.0234 132.168 27.0234 132.082 27.0234C132.004 27.0156 131.922 27.0156 131.836 27.0234C131.367 27.0391 131.074 27.125 130.957 27.2812C130.84 27.4297 130.781 27.7188 130.781 28.1484V35.2148C130.781 36.6992 130.539 37.8633 130.055 38.707C129.57 39.5508 128.859 40.1445 127.922 40.4883C126.992 40.8398 125.852 41.0156 124.5 41.0156ZM124.793 34.3477C125.738 34.3477 126.484 34.0117 127.031 33.3398C127.578 32.668 127.852 31.7539 127.852 30.5977C127.852 29.5039 127.574 28.6211 127.02 27.9492C126.473 27.2773 125.719 26.9414 124.758 26.9414C123.828 26.9414 123.086 27.2812 122.531 27.9609C121.984 28.6406 121.711 29.5547 121.711 30.7031C121.711 31.8125 121.988 32.6992 122.543 33.3633C123.098 34.0195 123.848 34.3477 124.793 34.3477ZM139.055 36V34.2188H139.711C140.094 34.2188 140.363 34.1797 140.52 34.1016C140.684 34.0156 140.781 33.8945 140.812 33.7383C140.852 33.582 140.871 33.3984 140.871 33.1875V23.707C140.871 23.5195 140.852 23.3398 140.812 23.168C140.781 22.9883 140.688 22.8398 140.531 22.7227C140.375 22.5977 140.121 22.5352 139.77 22.5352C139.691 22.5273 139.578 22.5234 139.43 22.5234C139.281 22.5234 139.156 22.5234 139.055 22.5234V20.7422H146.074C147.723 20.7422 149.016 20.8945 149.953 21.1992C150.891 21.4961 151.555 21.9336 151.945 22.5117C152.344 23.082 152.543 23.7812 152.543 24.6094C152.543 25.4141 152.301 26.1211 151.816 26.7305C151.34 27.3398 150.645 27.7539 149.73 27.9727C150.832 28.1992 151.68 28.6406 152.273 29.2969C152.867 29.9531 153.164 30.7812 153.164 31.7812C153.164 32.5859 152.973 33.3086 152.59 33.9492C152.215 34.582 151.57 35.082 150.656 35.4492C149.742 35.8164 148.496 36 146.918 36H139.055ZM144.129 34.1484H146.25C147.414 34.1484 148.285 33.9336 148.863 33.5039C149.449 33.0742 149.742 32.4492 149.742 31.6289C149.742 30.6836 149.418 30 148.77 29.5781C148.129 29.1484 147.055 28.9336 145.547 28.9336H144.129V34.1484ZM144.129 27.375H146.168C147.191 27.375 147.961 27.168 148.477 26.7539C149 26.332 149.262 25.7305 149.262 24.9492C149.262 24.2305 149.016 23.6602 148.523 23.2383C148.039 22.8086 147.215 22.5938 146.051 22.5938H144.129V27.375ZM154.852 36V34.3828C155.336 34.375 155.688 34.3516 155.906 34.3125C156.125 34.2734 156.262 34.1836 156.316 34.043C156.379 33.9023 156.41 33.6914 156.41 33.4102V27.5859C156.41 27.2969 156.293 27.1328 156.059 27.0938C155.824 27.0469 155.441 27.0195 154.91 27.0117C154.91 26.7383 154.91 26.4688 154.91 26.2031C154.918 25.9375 154.922 25.6719 154.922 25.4062C155.242 25.4062 155.551 25.4102 155.848 25.418C156.152 25.418 156.449 25.418 156.738 25.418C157.176 25.4102 157.621 25.4023 158.074 25.3945C158.527 25.3867 158.984 25.375 159.445 25.3594V33.4219C159.445 33.8594 159.547 34.1289 159.75 34.2305C159.961 34.332 160.359 34.3828 160.945 34.3828V36C160.703 36 160.418 36 160.09 36C159.762 35.9922 159.426 35.9883 159.082 35.9883C158.746 35.9883 158.43 35.9883 158.133 35.9883C157.844 35.9805 157.613 35.9766 157.441 35.9766C156.918 35.9766 156.461 35.9805 156.07 35.9883C155.68 35.9961 155.273 36 154.852 36ZM157.863 23.1562C157.449 23.1562 157.105 23.0234 156.832 22.7578C156.566 22.4844 156.434 22.1445 156.434 21.7383C156.434 21.3398 156.566 21.0117 156.832 20.7539C157.105 20.4883 157.449 20.3555 157.863 20.3555C158.277 20.3555 158.617 20.4883 158.883 20.7539C159.148 21.0195 159.281 21.3516 159.281 21.75C159.281 22.1562 159.148 22.4922 158.883 22.7578C158.617 23.0234 158.277 23.1562 157.863 23.1562ZM168.293 36.3398C167.113 36.3398 166.082 36.1133 165.199 35.6602C164.324 35.1992 163.645 34.5508 163.16 33.7148C162.684 32.8789 162.445 31.8984 162.445 30.7734C162.445 29.6953 162.684 28.7383 163.16 27.9023C163.637 27.0586 164.281 26.3984 165.094 25.9219C165.914 25.4375 166.828 25.1953 167.836 25.1953C168.438 25.1953 169.02 25.2773 169.582 25.4414C170.145 25.6055 170.637 25.8945 171.059 26.3086L171.246 25.418C171.395 25.418 171.578 25.4258 171.797 25.4414C172.016 25.4492 172.238 25.457 172.465 25.4648C172.691 25.4727 172.879 25.4844 173.027 25.5V29.3672H171.293C171.207 28.4844 170.93 27.8281 170.461 27.3984C170 26.9688 169.387 26.7539 168.621 26.7539C167.652 26.7539 166.902 27.1172 166.371 27.8438C165.848 28.5703 165.586 29.5352 165.586 30.7383C165.586 31.9648 165.859 32.9375 166.406 33.6562C166.961 34.3672 167.719 34.7227 168.68 34.7227C169.383 34.7227 169.953 34.5234 170.391 34.125C170.836 33.7266 171.133 33.168 171.281 32.4492L173.402 32.7305C173.176 33.8789 172.613 34.7695 171.715 35.4023C170.824 36.0273 169.684 36.3398 168.293 36.3398ZM179.121 36.2578C177.855 36.2578 176.879 35.9414 176.191 35.3086C175.512 34.6758 175.172 33.9023 175.172 32.9883C175.172 31.957 175.602 31.1367 176.461 30.5273C177.328 29.918 178.52 29.6133 180.035 29.6133C180.535 29.6133 181.035 29.6445 181.535 29.707C182.043 29.7695 182.535 29.8633 183.012 29.9883V28.5117C183.012 27.8789 182.797 27.3828 182.367 27.0234C181.938 26.6641 181.273 26.4844 180.375 26.4844C178.891 26.4844 178.008 27.0781 177.727 28.2656L176.074 28.1016L176.168 25.8516C176.488 25.7031 177.035 25.5391 177.809 25.3594C178.59 25.1797 179.547 25.0898 180.68 25.0898C182.586 25.0898 183.957 25.3906 184.793 25.9922C185.637 26.5859 186.059 27.5703 186.059 28.9453V33C186.059 33.4688 186.082 33.8008 186.129 33.9961C186.176 34.1914 186.266 34.3086 186.398 34.3477C186.539 34.3867 186.75 34.4062 187.031 34.4062H187.582V36C187.488 36 187.312 36 187.055 36C186.797 35.9922 186.531 35.9883 186.258 35.9883C185.992 35.9883 185.797 35.9883 185.672 35.9883C185.242 35.9961 184.855 36.0039 184.512 36.0117C184.168 36.0195 183.789 36.0273 183.375 36.0352L183.141 34.4883C182.766 35.0508 182.258 35.4883 181.617 35.8008C180.984 36.1055 180.152 36.2578 179.121 36.2578ZM180.234 34.7461C180.742 34.7461 181.207 34.6523 181.629 34.4648C182.051 34.2695 182.387 33.9883 182.637 33.6211C182.887 33.2461 183.012 32.7891 183.012 32.25V31.0547C182.637 30.9531 182.27 30.8789 181.91 30.832C181.559 30.7773 181.207 30.75 180.855 30.75C180.004 30.75 179.336 30.9297 178.852 31.2891C178.367 31.6484 178.125 32.1484 178.125 32.7891C178.125 33.3906 178.324 33.8672 178.723 34.2188C179.121 34.5703 179.625 34.7461 180.234 34.7461ZM188.578 36V34.3828C189.148 34.3828 189.547 34.3633 189.773 34.3242C190 34.2852 190.133 34.1992 190.172 34.0664C190.211 33.9336 190.23 33.7227 190.23 33.4336V27.6328C190.23 27.3125 190.113 27.1289 189.879 27.082C189.652 27.0352 189.23 27.0117 188.613 27.0117V25.4062C188.77 25.4062 188.992 25.4102 189.281 25.418C189.57 25.418 189.836 25.4219 190.078 25.4297C190.32 25.4297 190.441 25.4297 190.441 25.4297C190.871 25.4297 191.309 25.4219 191.754 25.4062C192.199 25.3906 192.656 25.3789 193.125 25.3711V27.5742C193.484 26.8008 193.996 26.207 194.66 25.793C195.332 25.3711 196.137 25.1602 197.074 25.1602C197.418 25.1602 197.781 25.1914 198.164 25.2539V28.4648C198 28.4492 197.809 28.4453 197.59 28.4531C197.371 28.4531 197.184 28.457 197.027 28.4648C196.918 28.1289 196.762 27.875 196.559 27.7031C196.355 27.5312 196.07 27.4453 195.703 27.4453C195.055 27.4453 194.516 27.7148 194.086 28.2539C193.656 28.793 193.414 29.5078 193.359 30.3984C193.344 30.4375 193.332 30.5625 193.324 30.7734C193.316 30.9766 193.309 31.2227 193.301 31.5117C193.301 31.8008 193.297 32.0977 193.289 32.4023C193.289 32.6992 193.289 32.9609 193.289 33.1875C193.289 33.4141 193.289 33.5703 193.289 33.6562C193.289 34.0312 193.422 34.2461 193.688 34.3008C193.961 34.3555 194.445 34.3828 195.141 34.3828V36C194.555 36 193.984 35.9961 193.43 35.9883C192.875 35.9805 192.215 35.9766 191.449 35.9766C190.824 35.9766 190.301 35.9805 189.879 35.9883C189.465 35.9961 189.031 36 188.578 36ZM202.77 36.2578C201.504 36.2578 200.527 35.9414 199.84 35.3086C199.16 34.6758 198.82 33.9023 198.82 32.9883C198.82 31.957 199.25 31.1367 200.109 30.5273C200.977 29.918 202.168 29.6133 203.684 29.6133C204.184 29.6133 204.684 29.6445 205.184 29.707C205.691 29.7695 206.184 29.8633 206.66 29.9883V28.5117C206.66 27.8789 206.445 27.3828 206.016 27.0234C205.586 26.6641 204.922 26.4844 204.023 26.4844C202.539 26.4844 201.656 27.0781 201.375 28.2656L199.723 28.1016L199.816 25.8516C200.137 25.7031 200.684 25.5391 201.457 25.3594C202.238 25.1797 203.195 25.0898 204.328 25.0898C206.234 25.0898 207.605 25.3906 208.441 25.9922C209.285 26.5859 209.707 27.5703 209.707 28.9453V33C209.707 33.4688 209.73 33.8008 209.777 33.9961C209.824 34.1914 209.914 34.3086 210.047 34.3477C210.188 34.3867 210.398 34.4062 210.68 34.4062H211.23V36C211.137 36 210.961 36 210.703 36C210.445 35.9922 210.18 35.9883 209.906 35.9883C209.641 35.9883 209.445 35.9883 209.32 35.9883C208.891 35.9961 208.504 36.0039 208.16 36.0117C207.816 36.0195 207.438 36.0273 207.023 36.0352L206.789 34.4883C206.414 35.0508 205.906 35.4883 205.266 35.8008C204.633 36.1055 203.801 36.2578 202.77 36.2578ZM203.883 34.7461C204.391 34.7461 204.855 34.6523 205.277 34.4648C205.699 34.2695 206.035 33.9883 206.285 33.6211C206.535 33.2461 206.66 32.7891 206.66 32.25V31.0547C206.285 30.9531 205.918 30.8789 205.559 30.832C205.207 30.7773 204.855 30.75 204.504 30.75C203.652 30.75 202.984 30.9297 202.5 31.2891C202.016 31.6484 201.773 32.1484 201.773 32.7891C201.773 33.3906 201.973 33.8672 202.371 34.2188C202.77 34.5703 203.273 34.7461 203.883 34.7461Z" fill="#006A9A"/>
</svg>
