<svg width="69" height="67" viewBox="0 0 69 67" fill="none" xmlns="http://www.w3.org/2000/svg">
<path d="M35.2903 66.3404C44.2471 66.1516 51.1919 59.3661 57.2821 52.8409C63.074 46.6355 67.4073 39.4172 68.2754 31C69.2521 21.5294 69.5015 10.4592 62.3009 4.17483C55.2513 -1.97769 44.6744 2.10477 35.2903 2.21198C26.1001 2.31698 15.9268 -1.09149 8.89415 4.78493C1.57633 10.8997 0.171012 21.5254 0.838145 31C1.45864 39.8123 6.15742 47.4415 12.3446 53.7882C18.6588 60.2653 26.2146 66.5319 35.2903 66.3404Z" fill="#38BDF8"/>
<path d="M18.1312 21.2535L22.2125 21.0876C23.7167 22.7527 25.7462 23.786 27.9366 23.9974C28.1597 24.0189 29.2131 24.0298 29.4292 24.0136C31.5897 23.8522 33.6137 22.8921 35.1431 21.3013L37.0159 21.2809L37.0201 21.2812L37.0248 21.2809L39.4882 21.2545C39.8611 21.2506 40.2135 21.0855 40.4539 20.8026C40.6943 20.5195 40.7986 20.1466 40.7399 19.781L39.4139 11.5394C38.7209 7.23229 34.0569 3.72723 29.0173 3.72723C28.9364 3.72723 28.616 3.72723 28.5356 3.72723C23.4961 3.72723 18.8324 7.23229 18.1395 11.5394L16.8132 19.7806C16.7525 20.1575 16.8654 20.5417 17.1208 20.8272C17.3762 21.1125 17.7446 21.2705 18.1312 21.2535ZM28.6594 21.4912C27.162 21.4628 25.7399 20.8869 24.6167 19.8825C26.3895 18.4349 27.5442 16.2623 27.7833 13.8413C28.6266 13.5954 29.4526 13.2206 30.2235 12.7088C30.903 15.2877 32.1017 17.4986 33.6789 19.1184C33.6734 19.1236 33.6683 19.129 33.663 19.1345C33.6468 19.1504 33.6317 19.1677 33.6162 19.1846C33.606 19.196 33.595 19.2063 33.5851 19.2181C32.3385 20.6985 30.5397 21.5276 28.6594 21.4912ZM36.8827 11.9422L37.9742 18.7251L37.324 18.7322C34.8513 17.401 33.0371 14.4268 32.4001 10.6621C33.0153 9.8522 33.5328 8.8921 33.9164 7.77534C35.4862 8.82048 36.6209 10.3144 36.8827 11.9422ZM20.6704 11.9412C21.1648 8.86911 24.7666 6.27277 28.5358 6.27277C28.6054 6.27277 28.9471 6.27277 29.0174 6.27277C29.8945 6.27277 30.7619 6.41587 31.5838 6.67008C30.3896 10.5348 27.2372 11.9529 24.4989 11.613C23.7966 11.5257 23.156 12.021 23.0683 12.7187C22.9807 13.4162 23.479 14.0524 24.1813 14.1393C24.4967 14.1784 24.8179 14.1993 25.1427 14.2034C24.782 16.1008 23.6458 17.7094 22.0271 18.5475L19.5914 18.6461L20.6704 11.9412ZM54.9445 35.4192H39.2143C38.5066 35.4192 37.869 35.95 37.869 36.6528V38.682C37.869 39.385 38.4428 39.9549 39.1506 39.9549C39.8583 39.9549 40.4321 39.385 40.4321 38.682V37.9647H53.6322V47.9088L51.9279 46.5117C51.6979 46.3225 51.424 46.2376 51.1253 46.2376H47.7372V43.0556C47.7372 42.3528 47.2036 41.783 46.4958 41.783H30.7656C30.0578 41.783 29.5389 42.3528 29.5389 43.0556V57.0201C29.5389 57.5134 29.7984 57.9623 30.248 58.1721C30.6602 58.4032 31.3559 58.1923 31.5903 57.9992L35.0468 55.1469H46.4958C47.2035 55.1469 47.7371 54.5785 47.7371 53.8757V48.7831H50.6631L54.1266 51.6157C54.3609 51.8089 54.6514 51.8992 54.9447 51.8992C55.1296 51.8992 55.3003 51.8549 55.4741 51.7738C55.9237 51.564 56.1953 51.1104 56.1953 50.6171V36.6528C56.1954 35.95 55.6523 35.4192 54.9445 35.4192ZM45.174 52.6014H34.5848C34.2861 52.6014 34.0242 52.7058 33.7943 52.8951L32.1019 54.3118V44.3285H45.174V52.6014ZM25.7407 29.6196C22.5795 30.4828 20.4683 32.5775 19.9482 35.3667L17.208 50.0559H24.34C25.0476 50.0559 25.6214 50.6257 25.6214 51.3286C25.6214 52.0316 25.0478 52.6014 24.34 52.6014H15.6673C15.2866 52.6014 14.9255 52.4333 14.682 52.1427C14.4385 51.8519 14.3378 51.4688 14.4072 51.0971L17.4278 34.9032C18.1337 31.1173 20.9159 28.2968 25.0613 27.1652C27.2846 26.558 29.7534 26.5152 32.0134 27.0441C34.4468 27.6135 36.5043 28.7883 37.9634 30.4418C38.4298 30.9704 38.3765 31.7747 37.8441 32.2378C37.3121 32.7012 36.5024 32.6483 36.0357 32.1194C33.8121 29.5997 29.5788 28.572 25.7407 29.6196Z" fill="white" stroke="white" stroke-width="0.00101949"/>
</svg>
